<svg xmlns="http://www.w3.org/2000/svg" width="32" height="32" viewBox="0 0 32 32" fill="none">
  <path fill="#5741CF" d="M16 4c-1.2 0-2.2.45-3 1.2-.55-.35-1.2-.55-1.9-.55-1.35 0-2.55.75-3.15 1.85-.35-.05-.7-.1-1.05-.1C4.25 6.4 3 7.65 3 9.15c0 .75.3 1.45.8 2-.45.85-.7 1.8-.7 2.85 0 3.55 2.55 6.5 5.95 7.15L16 28l6.95-6.85c3.4-.65 5.95-3.6 5.95-7.15 0-1.05-.25-2-.7-2.85.5-.55.8-1.25.8-2 0-1.5-1.25-2.75-2.75-2.75-.35 0-.7.05-1.05.1-.6-1.1-1.8-1.85-3.15-1.85-.7 0-1.35.2-1.9.55-.8-.75-1.8-1.2-3-1.2Z"/>
  <path fill="#fff" fill-opacity=".92" d="M11 13.5c0-.55.45-1 1-1s1 .45 1 1-.45 1-1 1-1-.45-1-1Zm8 0c0-.55.45-1 1-1s1 .45 1 1-.45 1-1 1-1-.45-1-1Zm-5 3.5h2c0 1.1-.9 2-2 2s-2-.9-2-2Z"/>
</svg>
