<svg xmlns="http://www.w3.org/2000/svg" viewBox="0 0 287.56 191" width="24" height="24" role="img" aria-label="Meta">
  <defs>
    <linearGradient id="meta-a" x1="62.34" y1="101.45" x2="260.34" y2="91.45" gradientUnits="userSpaceOnUse">
      <stop offset="0" stop-color="#0064e1"/>
      <stop offset=".4" stop-color="#0064e1"/>
      <stop offset=".83" stop-color="#0073ee"/>
      <stop offset="1" stop-color="#0082fb"/>
    </linearGradient>
    <linearGradient id="meta-b" x1="41.42" y1="112.97" x2="41.42" y2="39.8" gradientUnits="userSpaceOnUse">
      <stop offset="0" stop-color="#0082fb"/>
      <stop offset="1" stop-color="#0064e0"/>
    </linearGradient>
  </defs>
  <path fill="#0081fb" d="M31.06 126c0 11 2.41 19.41 5.56 24.51A19 19 0 0 0 53.19 160c8.1 0 15.51-2 29.79-21.76 11.44-15.83 24.92-38 34-52l15.36-23.6c10.67-16.39 23-34.61 37.18-46.96C181.07 5.6 193.54 0 206.09 0c21.07 0 41.14 12.21 56.5 35.11 16.81 25.08 25 56.67 25 89.27 0 19.38-3.82 33.62-10.32 44.87C271 180.13 258.72 191 238.13 191v-31c17.63 0 22-16.2 22-34.74 0-26.42-6.16-55.74-19.73-76.69-9.63-14.86-22.11-23.94-35.84-23.94-14.85 0-26.8 11.2-40.23 31.17-7.14 10.61-14.47 23.54-22.7 38.13l-9.06 16c-18.2 32.27-22.81 39.62-31.91 51.75C84.74 183 71.12 191 53.19 191c-21.27 0-34.72-9.21-43-23.09C3.34 156.6 0 141.76 0 124.85z"/>
  <path fill="url(#meta-b)" d="M24.49 37.3C38.73 15.35 59.28 0 82.85 0c13.65 0 27.22 4 41.39 15.61 15.5 12.65 32 33.48 52.63 67.81l7.39 12.32c17.84 29.72 28 45 33.93 52.22 7.64 9.26 13 12 19.94 12 17.63 0 22-16.2 22-34.74l27.4-.86c0 19.38-3.82 33.62-10.32 44.87C271 180.13 258.72 191 238.13 191c-12.8 0-24.14-2.78-36.68-14.61-9.64-9.08-20.91-25.21-29.58-39.71L146.08 93.6c-12.94-21.62-24.81-37.74-31.68-45-7.4-7.85-16.91-17.33-32.1-17.33-12.3 0-22.74 8.63-31.47 21.84z"/>
  <path fill="url(#meta-a)" d="M82.35 31.23c-12.3 0-22.74 8.63-31.47 21.84C38.54 71.66 31.06 99.6 31.06 126c0 11 2.41 19.41 5.56 24.51L10.14 167.91C3.34 156.6 0 141.76 0 124.85 0 94.35 8.37 62.57 24.49 37.3 38.73 15.35 59.28 0 82.85 0z"/>
</svg>
